# xmcd
#
# Track frame offsets:
#	150
#	18613
#	37644
#	55960
#	70203
#	85576
#	103790
#	120852
#	138247
#	154349
#	171446
#	189207
#	204036
#
# Disc length: 2968 seconds
#
# Revision: 0
# Processed by: cddbd v1.5.2PL0 Copyright (c) Steve Scherf et al.
# Submitted via: EasyCDDAExtractor 12.0.1.1
#
DISCID=9d0b960d
DTITLE=Bellamy Brothers - Take Me Home
DYEAR=1992
DGENRE=Country
TTITLE0=Beggars And Heroes
TTITLE1=Take Me Home
TTITLE2=My Indiana Lady
TTITLE3=Miami Moon
TTITLE4=I Wish I Had You
TTITLE5=Changin' Hearts
TTITLE6=Suzanne Suzanne
TTITLE7=Blame It... On The Fire In My Heart
TTITLE8=Blue Highway
TTITLE9=I Love You (More And More)
TTITLE10=Life Is A Beach
TTITLE11=Rockin' Sally
TTITLE12=Lay Ya Down
EXTD=
EXTT0=
EXTT1=
EXTT2=
EXTT3=
EXTT4=
EXTT5=
EXTT6=
EXTT7=
EXTT8=
EXTT9=
EXTT10=
EXTT11=
EXTT12=
PLAYORDER=
